<?xml version="1.0" encoding="UTF-8"?>
<svg id="Layer_1" data-name="Layer 1" xmlns="http://www.w3.org/2000/svg" viewBox="0 0 766.62 683.74">
  <defs>
    <style>
      .cls-1 {
        fill: #eea927;
      }

      .cls-2 {
        letter-spacing: 0em;
      }

      .cls-3 {
        letter-spacing: -.01em;
      }

      .cls-4 {
        fill: #e8d17e;
      }

      .cls-5 {
        fill: #e8eaed;
      }

      .cls-6 {
        letter-spacing: 0em;
      }

      .cls-7, .cls-8 {
        fill: #fff;
      }

      .cls-9 {
        fill: #d2d8df;
      }

      .cls-10 {
        fill: #ffe9ab;
      }

      .cls-11 {
        fill: none;
      }

      .cls-12 {
        fill: #eff0f3;
      }

      .cls-13 {
        fill: #fefcf7;
      }

      .cls-14 {
        fill: #1f3a5f;
      }

      .cls-15 {
        fill: #f0f1f4;
      }

      .cls-16 {
        fill: #ffde81;
      }

      .cls-8 {
        font-family: Nunito-ExtraBold, Nunito;
        font-size: 54px;
        font-weight: 700;
      }

      .cls-17 {
        letter-spacing: -.02em;
      }

      .cls-18 {
        fill: #eeeff2;
      }

      .cls-19 {
        fill: #f27e00;
      }

      .cls-20 {
        fill: #ffc82d;
      }
    </style>
  </defs>
  <path class="cls-14" d="M309.28,68.3c2.87.91,5.82.88,8.74.39,2.19-.37,10.17-1.93,11.99-1.89,15.22.31,28.59,7.5,40.45,17.19,3.87,3.37,7.61,6.89,11.34,10.43,12.53,11.87,25.28,22.97,39.66,32.57.27-.72.53-1.44.8-2.18,4.75-11.23,14.5-25.39,25.46-32.65,1.23-.82,7.89-5.32,14.12.46,11.13,9.44,19.08,21.13,26.49,33.56.55.91,1.09,1.83,1.66,2.77,2.62,4.48,4.65,8.53,6.11,13.52,1.19,3.1,1.77,4.23,4.74,5.78,3.11.89,6.17,1.48,9.36,2,2.28.46,4.56.93,6.83,1.41,1.11.22,2.21.45,3.35.68,20.19,4.4,38.57,16.25,53.65,30.02q2.27,1.86,4.82,1.7c.84-.2,1.67-.41,2.54-.62.96-.22,1.91-.44,2.9-.66,1.04-.26,2.09-.51,3.16-.78,2.35-.5,4.71-1,7.06-1.5,1.08-.24,2.17-.47,3.29-.72,1.21-.26,2.41-.52,3.65-.78.67-.17,1.35-.35,2.04-.53,7.66-1.82,15.34-1.85,23.17-1.84,2.35,0,4.69-.04,7.04-.08,7.89-.06,13.73,2.06,20.84,4.11,4.76,1.37,5.14,6.8,5.48,9.15,1.12,7.83-1.23,17.2-3.19,23.94-6.24,19.78-14.89,42.1-30.62,56.27q-1.92,1.82-2.15,4.12c.05.7.09,1.39.14,2.11.08,1.24.17,2.48.25,3.75,5,23.09-9.42,51.07-35.89,58.05-6.83,1.8.79,9.93-3.87,28.14-1.74,6.78-6.43,10.31-8.9,12.15-3.43,2.55-7.57,4.2-11.9,5.77-3.81,1-6.15,1.76-11.33,1.23-1.35-.14-6.74-1.42-7.34-1.44-2.1-.07-2.77.15-5.77,1.12-6.14,2.33-17.52,1.99-24.06-2.88-.65-.55-1.3-1.11-1.97-1.68-2.36-1.73-4.09-2.03-6.96-2.45-6.93-1.09-12.94-4.57-16.94-10.12-3.09-4.72-3.46-10.38-4.06-15.88-.37-.14-5.94-2.82-12.23-5-4.97-1.72-10.86-3.05-11.77-3-3.08,4.3-6.21,7.4-8.1,9.15-9.9,9.14-36.53,10.65-38.45,10.91-6.69.91-8.39,6.16-8.91,6.88-7.1,9.91-19.43,11.92-28.54,12.59-13.01.95-29.76-2.76-37.46-15.35-3.12-5.1-8.84-4.45-14.9-5.15-7.79.04-21.94-4.36-27.47-8.75-5.8-4.6-10.34-3.93-15.67-3.9-8.4-.15-16.61-.69-24.94-1.81q-1.41-.18-2.85-.37c-4.09-.57-8.07-1.23-12.06-2.29-1.45-.57-5.5-1.64-8.06-.84-2.06.65-2.77,3.01-3.28,4.06-1.6,6.52-8.25,11.87-19.38,11.9-.81-.01-1.63-.02-2.47-.04-1.7-.03-3.4-.07-5.1-.12-2.32-.03-10.16,2.9-16.43,2.88-8.64-.02-16.23-3.23-19.74-5.88-3.54-2.08-5.39-2.18-9.44-2.38-10.63-.54-19.13-4.59-26.47-12.31-6.49-7.91-7.95-16.6-7.68-26.66,1.41-12.2,8.91-21.2,17.41-29.52-.45-.45-22.27-16.49-23-27-.65,0-1.31,0-1.98,0-12.12-.51-21.87-6.17-30.02-14.99-4.98-6.13-8.84-12.77-12-20-.39-.86-.79-1.71-1.2-2.59-4.98-12.39-4.72-28.84.35-41.23,5.43-9.79,12.09-18.85,20.21-26.58,2.39-2.33,4.53-4.85,6.7-7.38,2.18-2.49,4.43-4.91,6.68-7.34,3.19-3.48,6.16-7.01,9.01-10.78,11.45-15.14,24.28-28.09,40.8-36.36,2.93-1.47,5.68-3.69,15.58-4.71,12.54.15,19.33-2.23,29.15-9.8,12.37-8.9,29.05-12.12,43.71-15.23,1.05-.23,2.09-.46,3.17-.7,19.9-3.73,42.12-2.42,60.66,6.01Z"/>
  <path class="cls-20" d="M322.46,86.99c-.33-.76-.66-1.53-1-2.31q-1-2.69-1-5.69c10.16-3.39,20.7.09,30.04,4.4,7.9,4.26,14.06,9.95,20.44,16.14,2.22,2.13,4.53,4.17,6.83,6.21,2.88,2.57,5.6,5.19,8.25,8,8.82,8.96,19.8,16.61,30.44,23.25-.41,1.24-.82,2.47-1.25,3.75-.27.82-.54,1.64-.82,2.49-.63,1.89-1.28,3.77-1.95,5.64-2.68,7.7-4.9,15.28-5.04,23.48q-.17,8.72-2.64,11.65c-2.04,1.49-7.79,5.59-8.55,6.42-.58.52-1.15,1.03-1.75,1.56-6.64-.92-10.84-6.58-14.65-11.61-7.37-10.12-12.56-20.96-17.3-32.5-.26-.63-.52-1.27-.79-1.92-1.31-3.19-2.6-6.38-3.87-9.59q-5.6-15.15-16.39-26.38,12.92,48.33,42,87.5,2,2.5,2.06,5.62c-.91,4.04-2.48,7.9-4.03,11.74-3.1,9.38-3.19,18.04-2.61,27.83.14,4.79.19,8.28-2.91,12.1-3.71,3.65-7.86,6.74-12.08,9.77-.82.6-1.64,1.19-2.48,1.81-7.08,5.11-14.34,9.93-21.65,14.7-5.73,3.77-10.99,7.72-16.06,12.35-2.74,1.91-4.97,2.25-8.25,2.57.41-.61.82-1.21,1.24-1.84,6.54-10.17,8.59-21.44,6.32-33.48-.84-4.94-.88-7.95,1.82-12.28,1.07-1.51,2.17-3,3.3-4.46,7.62-10.35,11.44-18.58,11.5-31.62.01-1.3.03-2.61.04-3.95q.04-3.5-2.23-6.36-3.07-.73-6-1c.32.58.64,1.15.98,1.75,2.51,5.53,1.24,11.3-.6,16.88-3.6,8.98-8.79,13.22-17.38,17.38-.66.33-1.32.66-2,1q-12.32,1.04-16.69-1.81c-2.31-2.19-1.75-2.21-3.75-5.21,0-.99-.56-1.96-.56-2.98.57-.28,1.14-.56,1.72-.85,7.99-4.15,14.24-9.03,17.61-17.62,1.29-4.88,1.61-9.56.67-14.54-2.23-3.77-5.54-4.86-9.64-6.09-12.23-2.88-25.29-1.95-36.36,4.09-4.15,2.59-7.28,4.91-10,9-.7,5.87.07,9.27,3.46,14.12,5.38,6.56,12.08,11.04,20.56,12.35,2.66.25,5.31.44,7.98.54-1.02,5.65-2.69,8.15-7.15,11.74-7.92,5.4-17.59,4.96-26.85,4.26-3.38-.86-6.06-2.15-9-4-.68-.41-1.37-.82-2.07-1.25-5.44-3.65-10.33-8.68-12.93-14.75q.82-2.81,2-5-4.7-.41-8.94,1.25-1.41,1.98-1.06,5.75c.99.33,1.98.66,3,1q.96,2.22,1.81,5.06c3.94,11.47,12.31,19.05,22.51,25.24,10.7,6.5,14.14,13.03,18.41,24.61,3.28,7.99,8.6,13.17,16.27,17.09,2.69.93,8,2.66,8,3-11.29.54-20.46-1.75-31.06-5.44-7.29-2.53-14.67-4.08-22.22-5.6-13.33-2.68-26.79-6.04-39.43-11.07-1.9-.74-3.82-1.43-5.75-2.09-13.23-4.72-22-12.08-28.53-24.8-3.58-8.6-3.82-19.99-.64-28.72,1.19-2.25,2.42-4.47,3.7-6.68,5.5-9.63,8.61-21.66,9.95-32.6.11-.78.22-1.56.33-2.37,1.51-12.93,1.41-26.73-.21-39.67-.04-.32-2.37-3.36-5.75,18.78q-3.66,31.22-10.37,44.27c-.48,1.05-.96,2.11-1.46,3.19-6.56,13.99-15.22,27.3-30.11,33.25-7.95,2.56-14.86,2.22-22.44-1.44-5.08-3.31-9.56-6.97-13-12-.4-.57-.79-1.14-1.2-1.73-7.82-11.78-10.92-25.09-8.25-39.13,3.29-10.41,10.77-20,18.69-27.38,3.07-3.05,5.68-6.5,8.39-9.88,2.33-2.82,4.76-5.51,7.25-8.19,3.72-4.03,7.11-8.2,10.44-12.56,10.53-13.62,25.24-30.03,43.21-32.64q1.69-.09,3.41-.18t3.46-.2q1.29-.06,2.6-.11c-.97,2.45-1.94,4.87-3.06,7.25-.82,2.41-2.65,14.02-2.02,16.26.37,1.34,3.18-5.76,3.28-6.04,7.68-19.17,22.77-27.26,38.04-33.67,34.17-13.57,71.78-13.12,103.77,5.2Z"/>
  <path class="cls-7" d="M455.39,100.26c12.87,4.53,23.33,27.28,29.07,38.73q3,6.29,3,10c-1.04.12-2.08.24-3.15.37-7.69.92-15.29,1.92-22.85,3.63v3q1.27-.02,2.56-.05,32.46-.52,46.44,3.05c.67.17,1.35.34,2.04.52,22.85,6.05,42.33,18.22,59.56,34.27,1.84,1.7,3.69,3.29,5.65,4.84,4.27,3.69,8.04,7.92,11.27,12.56q1.44,2.1,4.48,2.82c-2.6-7.19-5.89-13.56-10-20,3.33-2.22,6.07-2.98,9.94-4q1.84-.5,3.71-1c10.62-2.54,20.8-3.31,31.72-3.25,1.34,0,2.68-.01,4.02-.02,1.28,0,2.56,0,3.88,0,1.15,0,2.3,0,3.48,0,3.37.27,3.26,1.69,6.41,2.89,1.19,26.52-8.05,54.14-25.65,73.96-2.57,2.37-5.4,3.84-8.52,5.4.22.73.43,1.45.66,2.2,3.35,12.08,3.78,22.98-1.95,34.36-4.34,7.61-9.7,15.43-17.71,19.44-3.72,1.59-8.13-2.65-9.06-3.67-11.72-12.35-29.41-19.72-45.94-21.33,2.28,2.05,6.8,3.22,10.14,4.5,39.19,15.63,37.99,24.18,37.99,24.86-1.89.7-5.91,2.02-7.81,2.7-1.06.38-2.11.77-3.2,1.16-4.17,1.04-6.58.69-10.25-1.49-.7-.51-1.39-1.02-2.11-1.54-12.6-8.69-26.6-11.91-41.75-9.56-9.19,2.1-17.3,6.83-24,13.38-.33.66-.66,1.32-1,2-11.43.78-22.48-4.06-33-8-.1-.92-.2-1.84-.3-2.78-1.08-8.88-2.54-15.81-9.01-22.27-6.81-5.23-14.63-6.79-22.96-7.62-19.99-2.1-18.38-1.31-23.04-6.65-1.56-2.24-4.5-5.31-5.71-7.75-1.05-2.08-2.22-4.04-3.44-6.02-5.17-8.57-9.76-16.63-9.54-26.91,12.29-1.1,22.49,2.07,34,6-8.52-9.08-23.01-12.87-35-15v-7c6.16.33,11.74.96,17.54,3.12,3.01,1.08,6.07,1.94,9.14,2.82,4.77,1.45,8.43,2.96,12.31,6.06-6.29-14.69-20.01-20.55-33.95-26.19-.68-.27-1.36-.53-2.05-.81,1.14-9.58,9.79-18.38,16.76-24.51,2.63-1.75,5.21-2.61,8.24-3.49-.06-1.3-.12-2.59-.18-3.93-.97-30.96,12.29-58.49,33.11-81.03q3.2-3.17,6-2.77Z"/>
  <path class="cls-9" d="M556.19,180.65c7.51,5.43,16.66,11.64,22.53,18.03,4.68,4.19,11.69,14.59,14.73,15.31-2.6-7.19-5.89-13.56-10-20,3.33-2.22,6.07-2.98,9.94-4,1.23-.33,2.45-.66,3.71-1,10.62-2.54,20.8-3.31,31.72-3.25,1.34,0,2.68-.01,4.02-.02,1.28,0,2.56,0,3.88,0,1.15,0,2.3,0,3.48,0,1.81.14,7.27-.63,8.61,2.12.71,1.47.67,6.69.61,7.89-1.18,24.17-12.57,48.95-28.46,66.85-2.57,2.37-5.4,3.84-8.52,5.4.22.73.43,1.45.66,2.2,3.34,12.07,3.84,23.09-2.02,34.43-2.81,4.85-4.88,8.71-9.64,13.37-.78-.54-1.57-1.07-2.38-1.62-17.48-11.59-36.67-20-56.62-26.38v-2q1.48-.99,3-2c-.61-.18-1.21-.37-1.84-.56-7.58-2.62-12.63-6.71-18.16-12.44q-.99-1-2-2.01c-2.22-2.53-3.91-4.57-4.14-8.01.19-1.6.43-3.19.72-4.77.45-3.47.4-6.74.3-10.24-.51-20.11,5.5-41.69,19.12-56.97,6.68-6.51,14.09-9.83,16.74-10.34Z"/>
  <path class="cls-10" d="M288.3,180.98c1.6-.02,13.76,1.07,19.15,3.01,3.56,1.19,6.82,1.17,10.53,1.21,1.53.03,3.06.06,4.59.09,2.4.04,4.79.08,7.19.1,15.76.19,29.58,1.71,41.57,13.04,5.28,5.6,8.27,11.22,8.25,18.94,0,1.14,0,2.28,0,3.46-.13,3.16-1.14,9.75-1.02,12.34.03.99.06,1.99.09,3.01.07,2.07.16,4.15.27,6.22.12,4.86.19,8.53-2.96,12.42-3.71,3.63-7.86,6.72-12.08,9.74-.82.6-1.64,1.19-2.48,1.81-7.08,5.11-14.34,9.93-21.65,14.7-5.73,3.77-10.99,7.72-16.06,12.35-2.74,1.91-4.97,2.25-8.25,2.57.41-.61.82-1.21,1.24-1.84,6.54-10.17,8.59-21.44,6.32-33.48-.84-4.94-.88-7.95,1.82-12.28,1.07-1.51,2.17-3,3.3-4.46,17.83-22.88,6.47-42.62,5.17-42.76-.48-.05,6.62,27.3-14.1,35.5-8.88,3.51-23.91,7.25-27.97-8.03.57-.28,1.35-1.21,1.94-1.5,7.99-4.15,14.24-9.03,17.61-17.62,1.29-4.88,1.61-9.56.67-14.54-2.23-3.77-5.54-4.86-9.64-6.09-12.23-2.88-25.29-1.95-36.36,4.09-4.15,2.59-7.28,4.91-10,9-.7,5.87.07,9.27,3.46,14.12,5.38,6.56,12.08,11.04,20.56,12.35,2.66.25,4.17.39,6.84.49,3.63,3.15-.89,9.96-6.73,13.48-8.79,5.29-23.52,6.04-29.27,3.4-15.95-7.32-23.29-22.75-24.72-24.86-.58-.86-.57,8.55,4.44,18.3,4.6,8.96,9.91,13.68,18.75,19.04,10.7,6.5,14.14,13.03,18.41,24.61,3.28,7.99,8.6,13.17,16.27,17.09,2.69.93,8,2.66,8,3-5.96.18-11.42-.42-17.17-1s-20.82-7.7-24.03-8.99c-1.96-.73-22.6-6.49-27.26-8.13-33.76-11.88-36.61-20.49-40.04-30.59-3.33-9.79-1.85-23.05,8.72-34.47,8.64-9.33,21.97-13.61,34.02-16.88,8.19-2.23,14.79-5.58,21.75-10.38,12.19-7.98,26.54-11.56,40.85-11.57Z"/>
  <path class="cls-9" d="M455.39,100.26c12.87,4.53,23.33,27.28,29.07,38.73q3,6.29,3,10c-1.04.12-2.08.24-3.15.37-7.69.92-22.85,5.61-22.85,6.63q1.27-.02,2.56-.05c31.48-1.89,36.4.31,52.86,4.81,1.68,18.18-7.31,33.02-18.48,46.73-9.18,10.83-20.79,18.36-32.94,25.5-4.76,2.68-6.86,6.33-14,6-9.58-.44-21.32.04-28.97-4.28-1.59-2.06-4.3-4.19-8.19-7.26-6.47-4.69-13.54-7.8-22.84-11.45,1.14-9.58,9.25-20.24,16.76-24.51,2.63-1.75,5.21-2.61,8.24-3.49-.06-1.3-.12-2.59-.18-3.93-.97-30.96,12.29-58.49,33.11-81.03q3.2-3.17,6-2.77Z"/>
  <path class="cls-20" d="M206.13,291.43c8.63,5.44,15.46,13.74,17.93,23.76,1.11,7.84,2.12,16.07-1.35,23.12-6.94,14.13-19.26,11.89-20.37,7.68-.63-2.36-.29-5.52-.38-7.74-.28-7.18-2.82-14.25-3.5-14.25.02.75,1.95,12.05-1.66,17.4-4.32,6.39-17.53,10.27-26.85,1.9-6.04-5.43-6.75-15.49-6.49-18.3-.39.2-1.54,4.83-1.54,8.37,0,14.43-22.27,8.98-24.75-12.62-.46-7.8,2.07-13.62,6.83-19.73,6.96-7.51,15.64-11.63,25.46-14.03.63-.17,1.25-.34,1.9-.52,11.71-2.67,24.36-.65,34.78,4.96Z"/>
  <path class="cls-7" d="M409.58,29.49c5.61,3.13,9.37,8.24,12.88,13.5.54-.42,1.09-.84,1.64-1.28.72-.55,1.43-1.1,2.17-1.66.71-.55,1.42-1.09,2.14-1.65,4.81-3.32,10.43-3.08,16.04-2.41,9.61,2.29,14.14,9.54,14.69,17.81,1.13,24.49-44.3,43.06-48.59,41.84-5.96-1.68-33.09-32.37-28.78-52.15.94-8.97,9.22-15.83,19.72-15.83,2.68,0,5.34.62,8.09,1.82Z"/>
  <path class="cls-7" d="M565.45,336.28c3.53,3.01,7.37,6.06,8.99,10.3,2.65,6.98,1.23,11.28.06,14.23-1.99,5.01-5.31,8-8.63,9.84s-7.58,1.27-9.65.98c-8.02-1.14-6.26-13.09-6.44-12.52-2.9,6.36-8.86,16.46-21.98,13.2-11.69-2.9-9.64-20.34-9.95-19.33-1.23,2.68-3.08,9.64-7.98,11.03s-15.13-3.3-10.73-16.9c2.18-6.76,7.7-10.95,13.87-14.64,15.75-8.28,38.07-6.66,52.46,3.8Z"/>
  <path class="cls-14" d="M311.81,208.84c-2.84,7.47-9.17,13.49-14.65,17.7-6.3,4.84-11.23,5.99-24.39.44-4.74-2-11.54-6.12-15.86-11.95-.47-.64-5.64-7.34-1.39-14.91,4.07-7.24,13.97-11.84,25.87-13.28,13.26-1.6,22.12.85,28.39,4.92,6.24,4.05,2.26,16.46,2.03,17.06Z"/>
  <path class="cls-9" d="M369.89,295.36c1.18,0,2.36.01,3.58.02,17.66.1,35.54.48,52.44,5.41,3.9,1.14,14.06,5.3,13.72,6.32-1.66.77-4.84,1.64-7.03,2.19-.82.21-1.64.41-2.48.62-19.83,4.51-39.06,4.15-59.33,4.31-2.08.02-4.14-.81-6.22-.78-17.17.21-44.03-1.47-53.12-8.47,19.04-7.98,37.96-9.85,58.44-9.62Z"/>
  <path class="cls-20" d="M589.98,122.74c5.63,6.35,10.19,14.32,12.47,22.25,6.55,15.92-4.81,18.75-7.94,18.81-6.93-.33-12.49-5.1-18.06-8.81-2.95-1.7-5.2-2.28-8.59-2.46-.87-.06-1.73-.12-2.63-.19-1.81-.11-3.62-.21-5.43-.3-3.9-.29-6.25-.43-9.12-2.44-5.14-3.59-8.5-15.43,7.02-22.24,1.91-1.14,3.82-2.27,5.75-3.38.73-.44,1.47-.88,2.22-1.33,5.47-2.9,11.5-3.64,17.56-3.08,1.07.1,4.65.81,6.74,3.16Z"/>
  <path class="cls-7" d="M446.81,312.47c.52,2.33,1.19,3.42,2.36,10.2,3.25,18.73-1.52,19.18-4.84,21.77-11.68,6.2-38.71,7.73-39.29,7.7,1.45-9.19-.92-15.91-5.63-21.12-7.16-7.92-15.8-9.01-15.8-9.39.68-.04,11.37.48,14.5.37,23.03-.81,34.26-4.96,48.69-9.52Z"/>
  <path class="cls-19" d="M316.39,277.63c-.37,3.3-3.01,16.71-16.01,17.4-18.03.95-21-9.43-26.75-19.17-5.64-9.55-7.12-16.1.6-19.53,2.28-1.01,10.19-1.45,13.77,1.35,4.08,3.18,5.65,6.31,7.45,13.31.03-.7.63-4.16-.16-7.9-.95-4.49-3.62-6.75-.84-9.1,4.05-2.53,9.27-3.28,13.8-1.83,5.51,1.77,9.83,10.06,8.13,25.46Z"/>
  <path class="cls-14" d="M228.46,299.99c6.93,1.28,13.67,2.91,20.44,4.88.92.26,1.85.53,2.8.8,4.62,1.34,9.11,2.77,13.57,4.58,6.8,2.64,13.97,3.01,21.19,3.75v23c-17.53.39-33.04-.73-50-5-.01-.7-.03-1.41-.04-2.13-.42-8.66-2.84-15.83-5.96-23.87-.68-2-1.35-3.99-2-6Z"/>
  <path class="cls-7" d="M301.46,309.99c2.8.91,5.58,1.83,8.32,2.92,10.89,3.67,23.68,6.98,39.91,8.39,4.58.32,12.17.33,17.02.45-2.19,2.28-6.22,2.85-9.12,4.12-6.19,3-10.61,7.67-13.12,14.12-.88,3.98.55,8.58.05,12.62-6.47.19-14.25-1.02-20.55-2.43-.79-.17-1.58-.33-2.39-.5-5.51-1.19-10.8-2.8-16.11-4.69.36-3.71,1.08-6.34,3.06-9.44,2.22-3.75,2.67-6.14,1.94-10.56q-2.84-6.43-7-12c-.06.63-.12,1.25-.18,1.9q-.13,1.23-.25,2.48c-.08.81-.16,1.62-.25,2.46q-.32,2.16-1.32,4.16c-.23,1.87-.41,3.75-.56,5.62q-.13,1.5-.25,3.04c-.06.77.26,5.59.19,6.38-2.51-2.51-3.89-18.08.62-29.05Z"/>
  <path class="cls-7" d="M636.68,198.25c2.15,2.11,2.4,2.95,2.46,5.93-.58,13.66-10.08,27.77-19.69,36.81-3.58,3.19-7.53,4.43-12,6-.22-.69-.44-1.37-.67-2.08-1.02-3.14-2.05-6.28-3.08-9.42-.35-1.08-.7-2.16-1.05-3.27-1.57-4.78-3.13-9.33-5.52-13.77q-1.67-3.47-1.4-5.58c2.2-5.75,11.09-9.22,16.35-11.7,7.17-3.06,17.21-7.11,24.6-2.93Z"/>
  <path class="cls-14" d="M234.72,176.82c3.92,18.66-10.51,23.88-14.72,24.28-4.47.43-10.94-.9-15.7-6.22-3.38-3.77-5.54-10.54-5.49-16.93.09-10.42,5.66-19.32,16.7-19.3,13.57.02,17.79,11.44,19.2,18.16Z"/>
  <path class="cls-7" d="M457.68,118.74c3.31,4.99,4.95,11.69,5.78,17.24.18,2.9.23,5.79.25,8.69.02.77.04,1.54.06,2.34.02,2.24-5.45,8.48-9.19,9.16-6.62,1.43-11.6,3.9-17.45,7.29q-2.68,1.52-5.68,2.52c-3-13.08-.79-25.72,5.81-37.31,7.56-11.77,9.15-13.48,13.3-14.11,4.4-.67,6.18,2.76,7.11,4.18Z"/>
  <path class="cls-16" d="M316.96,84.04c-.18.54-30.38-7.6-66.7-1.91-47.88,7.51-64.52,27.67-68.8,31.85,3.85-11.33,13.09-20.11,26.79-27.43,31.2-17.37,76.09-20.14,108.71-2.52Z"/>
  <path class="cls-14" d="M336.47,156.97c2.81,8.61.7,22.55-11.1,24.85-13.13,2.56-20.23-8.86-22.32-17.15-.24-.96-2.97-18.1,9.75-22.44,17.72-6.05,23.3,13.61,23.67,14.74Z"/>
  <path class="cls-16" d="M182.46,97.99q-.44,2.31-2,5-1.75.75-3.94,1.38c-15.69,4.54-27.05,17.91-36.48,30.51-7.41,9.88-15,19.23-23.59,28.11q-1.14,1.21-2.29,2.45c-15.76,14.06-27.01,18.11-26.34,16.78.44-.95,2.09-4.67,6.51-10.57,1.46-1.95,3.26-3.72,4.9-5.45,3.81-4.11,7.66-8.01,11.29-12.28,3.29-3.86,6.59-7.69,10-11.44,2.74-3.05,5.26-6.2,7.75-9.45,11.23-14.67,25.69-31.06,44.75-34.74,3.17-.29,6.25-.39,9.44-.31Z"/>
  <path class="cls-14" d="M482.91,247.57c6.81,1.12,10.17,4.73,14.31,10.25.69,2.56-2.51-1.14-3.19,1.29-4.12,3.81.65,4.51-4.75,4.75-.61.09-3.2,4.03-3.83,4.13-1.41,2.83-1.28,5.78-.57,8.73,1.38,5.7,4.68,6.89,8.76,7.7,12.56,2.49,22.87-6.19,19.95-2.2-4.37,5.98-11.54,9.61-20.35,9.14-5.97-.81-12.51-4.02-14.45-10.95-.3-1.05-.34-1.99-.34-4.43-.78.5-1.57.99-2.38,1.5-2.61,1.08-4.99,1.57-7.44,1.81-13.81,1.39-17.43-10.87-17.82-12.62-.46-2.07-1.68-11.54,2.2-15.86.86-1.51.52,5.61,1.24,7.94.58,2.68,2.86,9.3,7.48,11.73,4.01,2.11,9.71,1.18,12.59,0,.51-.21,4.33-2.51,3.12-6.51q-.88-3.02-2.56-5.56c-1.65-2.8-.45-3.71.06-6.91,2.8-3.56,3.64-4.09,7.96-3.95Z"/>
  <path class="cls-14" d="M431.61,309.56c-6.82,2.88-31.55,5.86-55.25,5.86-4.66,0-42.47-1.18-56.73-6.58,45.36-11.44,96.83-3.41,111.98.72Z"/>
  <path class="cls-9" d="M458.01,306.7c6.25,2.97,15.23,5.24,21.09,7.14,16.55,5.23,47.36,4.8,47.36,5.14-.58.07-1.17.15-1.77.23-8.87,1.42-16.68,4.91-23.48,10.42-1.29,1.04-4.42,4.67-4.76,5.35-11.43.78-22.48-4.06-33-8-.12-.94-.24-1.88-.37-2.85-.17-1.25-.34-2.49-.51-3.77-.16-1.23-.32-2.46-.49-3.73-.59-3.39-2.59-6.93-4.08-9.93Z"/>
  <path class="cls-16" d="M350.49,83.39c7.9,4.26,14.06,9.95,20.44,16.14,2.22,2.13,4.53,4.17,6.83,6.21,2.88,2.57,5.6,5.19,8.25,8,8.82,8.96,19.8,16.61,30.44,23.25-.66,1.65-1.32,3.3-2,5-18.74-8.84-32.87-20.66-47.31-35.38-12.04-12.12-28.29-20.98-45.69-21.94,0,0-2.15-2.54-1-5.69,10.16-3.39,20.7.09,30.04,4.4Z"/>
  <path class="cls-20" d="M588.69,86.99c.5,5.42.22,11.52-.86,14.29-1.55,3.98-5.96,9.71-13.21,9.19-4.71-.34-10.02-5.27-11.33-8.54-2.14-5.33-1.89-12.13.02-17.05,2.64-6.78,7.16-9.1,12.62-9.11,10.86,0,12.71,10.68,12.76,11.21Z"/>
  <path class="cls-20" d="M626.53,105c-.29,4.26-2.44,9.16-5.87,11.88-3.17,2.52-6.79,4.32-9.71,5.05-4.45,1.11-11.12.92-14.85-3.8-3.11-3.93-2.37-11.5.22-16.34,4.72-8.25,12.82-12.04,19.19-10.86,7.53,1.39,11.5,6.98,11.02,14.07Z"/>
  <path class="cls-20" d="M547,96.93c5.62,2.49,8.85,7.52,10.73,13.02,1.08,3.17.79,6.45-1.1,9.14-2.4,3.4-6.64,5.18-11.67,5.18-9.95,0-15.86-10.48-16.49-13.03-1.47-5.9,1.68-10.82,2.59-11.78,3.69-3.88,10.55-4.93,15.95-2.54Z"/>
  <path class="cls-20" d="M638.32,133.08c2.99,4.59,1.86,11-1.17,14.02-2.75,2.74-5.85,4.23-9.68,4.97-6.82,1.33-13.23-.81-16.79-4.81-2.91-3.26-3.38-7.71-2.69-10.07,2.56-8.73,13.31-11.19,19.52-10.42.94.12,7.54,1.3,10.8,6.3Z"/>
  <path class="cls-14" d="M552.05,247.09c5.86,3.66,10.19,8.25,12.4,14.9.1,1.42,2.37,6.91-.07,10.33-.46.64-1.89,3.2-5.93.67q-1.53-1.93-2.94-4.31c-2.36-3.78-4.85-8.99-11.71-9.16-4.47-.11-8.24.59-12.42,3.35-1.88,1.41-5.53,5.74-9.26,4.74-3.93-1.06-2.96-6.06-1.18-9.61,7.75-9.3,18.8-16.11,31.1-10.9Z"/>
  <path class="cls-14" d="M382.46,263.99c1.98,3.79,3.96,7.58,5.94,11.38.56,1.08,1.13,2.16,1.71,3.27q.81,1.55,1.63,3.12c.5.95.99,1.91,1.51,2.89.75,1.44,1.49,2.89,2.22,4.34h-47c2.96-2.36,5.76-4.59,8.86-6.7,7.55-5.21,14.75-10.36,21.36-16.75q1.79-1.55,3.79-1.55Z"/>
  <path class="cls-14" d="M448.71,208.05c6.19,4.45,10.45,9.25,11.75,16.94.48,5.46.86,8.66-1.69,12.62-2.7,1.61-4.22,1.79-7.31,1.38-1.61-1.61-1.24-3.53-1.38-5.75-.4-4.17-.77-7.02-3.62-10.25-9.66-11.88-21.53-2.38-26-4,.08-2.77.57-4.51,2.41-6.6,7.15-6.41,17.02-9.47,25.84-4.34Z"/>
  <path class="cls-14" d="M153.46,252.99c.41.91.82,1.81,1.25,2.75,3.66,7.8,7.54,14.14,13.75,20.25l2,2c-1.89.53-3.79,1.05-5.69,1.56-1.06.29-2.11.58-3.2.88-3.25.58-4.97.46-8.11-.44-3.32-1.24-14.4-7.65-19.12-19.36,3.08-1.45,4.19-1.75,5.38-2.17,3.77-1.4,11.26-4.43,13.75-5.46Z"/>
  <path class="cls-9" d="M394.75,246.77c1.46,0,3.89.16,3.89.16.34,15.63,9,31.41,17.82,41.45,4.43,5.05,13.53,5.77,13.96,5.85-6.96-.71-13.04-.77-18.92-2.86-5.61-2.39-23.07-28.12-22.04-44.39,0,0,3.83-.21,5.29-.22Z"/>
  <path class="cls-19" d="M485.48,247.55c7.39,1.98,10.94,4.68,14.08,9.27,2.93,4.28-1.13,7.95-2.06,8.48-4.18,2.41-7.86.48-14.7,4.18-1.89,1.02-2.67.31-2.88-1.33-.49-3.84-4.9-8.59-5.37-9.49-1.28-2.12-2.1-3.74-1.65-6,.14-.7.63-4.44,5.76-5.37,2.13-.39,4.28-.16,6.82.26Z"/>
  <path class="cls-14" d="M590.55,293.47c2.35,1.22,10.91,6.5,10.91,7.52-1,1-27.91-13.82-59-11v-2c16.41-6.77,34.06-1.58,48.09,5.48Z"/>
  <path class="cls-20" d="M302.46,311.99c3.95,3.51,7.74,6.88,8.38,11.7,2.85,21.32-5.48,21.44-5.96,21.24-1.09-.47-2.85-1.12-3.6-4.05-.51-1.79-1.2-9.27-.76-16.17.4-6.44,1.91-12.37,1.94-12.72Z"/>
  <path class="cls-5" d="M554.02,318.24c.75.03,1.51.05,2.29.08,4.37.24,6.9.73,10.15,3.67,1.69,2.09,4.29,3.54,5.77,4.16,3.61,1.55,5.89,2.65,10.25,3.63-2.78.93-4.6,1.67-6.59,2.29-1.04.33-2.69,1-5.61.6-3.29-.45-4.49-1.61-7.07-3.5-6.26-4.65-16.27-8.27-24.8-9.81,0-.33,10.92-1.4,15.61-1.13Z"/>
  <path class="cls-15" d="M282.96,201.76c-4.66,1.02-20.64,2.1-12.81-4.06,6.26-4.92,16.34-7.19,23.59-3.69.59.28,9.92,3.2-10.78,7.74Z"/>
  <path class="cls-9" d="M392.29,223.34c10.25,1.69,28.41,15.14,29.3,15.97-1.52-.26-15.6-4.55-17.12-4.95-5.69-1.51-14.61-3.14-16.02-3.38-.04-2.33-.04-5.67,0-8,.33-.33,2.89.2,3.83.36Z"/>
  <path class="cls-1" d="M378.66,236.17c.93,12.58.02,15.14-1.21,16.81-5.9,8.01-21.12,17.01-30.75,23.51.33-.99,30.75-25.23,31.95-40.31Z"/>
  <path class="cls-12" d="M217.33,165.68c3.45.35,4.82.74,7.12,3.31q.5,2.44,0,5c-2.02,2.77-3.15,3.86-6.56,4.44q-2.44-.44-4.25-1.5c-1.83-2.99-1.5-5.52-1.19-8.94q2-2,4.88-2.31Z"/>
  <path class="cls-18" d="M318.89,147.61q3.56.38,5.56,2c1.35,3.21,1,5.07,0,8.38q-3,2-6.06,1.81-2.94-.81-4.94-3.81-.25-3.06,0-6,2-2,5.44-2.38Z"/>
  <path class="cls-20" d="M442.46,320.99c.33,6.27.66,12.54,1,19-2.39-1.19-3.71-1.95-4.75-3.13-1.25-1.43-5.32-6.59-.83-12.42,1.24-1.62,3.9-3.45,4.58-3.45Z"/>
  <path class="cls-4" d="M145.46,117.68c-.57.51-1.14,1.02-1.73,1.55-1.42,1.26-2.84,2.51-4.27,3.76l-2-1c1.77-1.79,3.54-3.59,5.31-5.38.5-.51,1-1.02,1.51-1.54,2.3-2.31,4.45-4.27,7.17-6.09"/>
  <path class="cls-11" d="M216.63,481.7c-7.84-1.1-12.42.37-17,7-5.65,11.67-7.55,26.38-4,39,2.07,6.53,3.81,11.62,10,15,5.04.82,9.23,1.13,13.64-1.68,5.42-5.33,8.98-13.17,9.34-20.79,0-.86.02-1.7.02-2.53.36-8.48.13-16.19-2.05-24.41-2.06-5.61-4.55-8.89-9.95-11.59Z"/>
  <path class="cls-20" d="M150.5,537.1c0-2.03,1.31-86.8,1.32-96.47,0-3.03,0-6.05.02-9.08.01-2.03.02-4.07.02-6.1,0-.32-.04-1.87-.06-3.99-.18-13.08-.89-20.66-14.61-20.87-9.63-.15-19.76-.4-28.21,4.21-1.51.82-4.56,2.45-3.97,7.45.71,6.07.78,12.18.89,18.3.02,1.17.03,2.31.05,3.44.06,3.73.13,7.45.19,11.18.04,2.58.08,5.16.12,7.74.13,7.59.25,15.19.37,22.78q-19.7-.5-39-1c.49-8.9,1.13-40.37,1.13-43.24,0-1.92,0-3.84,0-5.76,0-.93,0-1.84,0-2.74.01-4.46-.11-8.67-.94-12.84-.87-4.34-4.84-6.96-6.51-7.84-2.78-1.47-6.48-1.96-14.14-1.94-8.77.02-17.16,1.65-24.11,7.19-3.33,2.66-2.12,7.38-1.99,7.98,1.31,5.67,1.79,10.94,1.79,16.9-.01,1.9-.26,96.44-.28,100.96,0,2.16-.02,4.33-.02,6.49,0,2.01,0,4.03-.01,6.04,0,1.28-.01,2.52-.02,3.77,0,1.17,0,2.31,0,3.44-.02,5.96.47,9.58,4.54,14.2,4.47,3.94,10.38,4.75,16.11,4.8.77-.01,1.52-.03,2.27-.04,2.35-.02,4.7-.08,7.05-.2,4.08-.34,8.7-1.27,12.71-2.9,3.48-1.41,4.52-3.48,3.95-10.46-2.06-25.47-2.44-26.05-2.51-52.82h39c-.49,7.87-1.13,44.3-1.13,45.08-.02,6.69-.1,11.34,4.59,16.53,3.1,3.33,5.62,5.08,22.33,4.62,5.91-.26,16.67-.4,19.63-4.25,1.28-1.66,1.21-4.56.33-12.14-.73-6.16-.87-12.25-.89-18.45Z"/>
  <path class="cls-20" d="M317.63,475.7c2.42.05,20.78.37,26.21.1,1.83-.09,2.83-4.23,2.7-11.5-.06-3.54,0-8.1-.48-10.43-.32-1.6-4.74-1.5-5.7-1.49-5.22.08-20.1.3-20.73.31.25-3.38,1.91-27.19,2.03-30.17.15-3.75.92-10.96-5.43-11.43-2.81-.21-7.96.11-20.7,1.22q-1.37.13-2.71.25c-.9.08-1.78.16-2.66.24-.84.09-1.66.17-2.48.26-2.22.22-3.89.72-4.58,1.18-2.22,1.47-2.39,5.52-2.46,6.46-.28,3.58-1.58,25.9-1.83,29.57-.06.83-.11,1.63-.17,2.43-.91-.02-8.71-.16-12.71-.05-.16,0-3.01.46-3.46,3.04-.57,3.29-1.04,12.99.8,17.09.78,1.73,3.8,1.77,4.66,1.81,2.42.13,8.75.15,9.7.11-1.38,12.41-3.83,63.95,2,77,4.33,9.07,9.49,13.61,18.47,17.89,12.88,5.63,28.63,4.09,41.53-.89,4-1.84,8.11-3.62,9.73-7.97.3-4.67-2.03-18.36-8.23-19.49-3.8-.69-13.75,7.44-20.37,1.46-7.94-7.16-4.14-56.37-3.13-67Z"/>
  <path class="cls-7" d="M701.35,455.26c-.86.95.24,3.64-.71,4.45-.57-.28-1.11-.56-1.66-.84-.79-.4-1.57-.78-2.34-1.16-7.83-4.1-16.19-5.97-24.5-5.83-45.75.79-54.91,38.64-54.91,56.73,0,22.31,2.67,32.28,13.12,44.72,7.25,8.63,20.11,13.84,33.49,13.71,10.48-.93,23.98-4.6,31.09-12.16.41-.46-.4.45,0,0,2.48,36.97-7.25,55.6-28.78,57.51-5.84.52-14.99-1.24-27.07-7.82-.65-.36-4.84-3.61-7.09-2.74-6.67,2.57-14.14,16.23-14.5,17.27-1.04,2.94,1.28,6.37,3.61,8.46,8.65,7.77,15.39,10.54,25.75,13.82,13.28,4.2,25.82,5.37,40.26,2.5,24.02-4.78,39.94-21.3,44.45-79.66,1.94-25.11,2.54-58.46,2.65-83.9.03-5.95.84-22.64-.6-24.09-4.32-4.36-28.97-4.61-32.25-.96ZM683.39,535.14c-3.89,3.46-7.58,4.04-12.77,3.87-3.51-.54-5.39-1.94-7.99-4.3-6.57-10.44-6.69-23.8-4.25-35.66,2.58-7.38,6.27-12.41,13.04-16.39,5.32-2.29,10.39-1.42,15.71.49q3.5,1.56,4.5,2.56c.25,4.54.23,9.08.24,13.63,0,2.27.04,4.54.07,6.81.08,11.21-.45,20.61-8.56,29Z"/>
  <path class="cls-7" d="M474.59,426.79c-8.65-7.5-22.7-17.29-58.52-17.29-23.64,0-46.87,3.66-54.56,7.88-1.49.82-5.7,4.03-3.96,10.65,7.29,23.77,6.77,26.19,6.31,58.3-.74,52.23-3.81,66.25-1.9,73.69,3.34,13.08,45.82,13.15,56.99,12.63,18.33-.86,37.69-8.28,50.41-18.71,8.23-6.74,29.23-25.15,26.99-75.9-1.55-35.22-21.42-50.95-21.77-51.26ZM436.1,537.44c-9.27,5.26-27.66,5.29-29.47,5.26-.02-9.3-.04-18.59-.05-27.89,0-4.32-.01-8.64-.02-12.96-.05-19.83.09-39.59.95-59.4.04-.92.08-1.84.12-2.76,9.25-1.97,21.75-.14,26.95,3.05,9.98,6.12,17.17,15.07,19.22,46.86,2.5,38.68-12.82,45.05-17.71,47.83Z"/>
  <path class="cls-20" d="M393.48,325.37c6.54,3.93,11.21,10.83,12.29,18.96.35,7.11-.67,13.01-5.13,18.08-3.14,3.58-11.33,11.17-25.05,11.43-8.22.16-17.44-1.47-25.64-9.32-7.64-7.32-8.09-18.65-6.52-23.67,1.87-5.96,5.29-10.85,10.84-14.55,10.2-6.46,28.83-7.42,39.21-.93Z"/>
  <circle class="cls-12" cx="218.14" cy="172.05" r="7.46"/>
  <circle class="cls-12" cx="319.31" cy="153.75" r="6.95"/>
  <rect class="cls-13" x="366.18" y="328.54" width="15.62" height="37.04" rx="5" ry="5"/>
  <rect class="cls-13" x="366.18" y="328.54" width="15.62" height="37.04" rx="5" ry="5" transform="translate(721.06 -26.93) rotate(90)"/>
  <g>
    <path class="cls-11" d="M538.5,512.35c.17-4.28.58-8.13,1.2-11.54-.81,3.72-1.16,7.57-1.2,11.54Z"/>
    <path class="cls-11" d="M573.6,512.06c0,.11,0,.22,0,.33,0-.11,0-.22,0-.33Z"/>
    <path class="cls-7" d="M556.05,544.87c-9.7,0-18.42-8.63-17.56-32.29,0-.08,0-.15.01-.23.04-3.96.39-7.82,1.2-11.54,2.53-13.8,8.6-20.52,16.34-20.52,9.63,0,17.47,6.99,17.55,31.76,0,.11,0,.22,0,.33,0,.07,0,.13,0,.19-.03,22.22-7.86,32.29-17.56,32.29ZM609.21,507.82c-1.37-37.42-23.16-47.31-23.8-47.7-9.43-5.84-20.36-8.81-31.39-8.47-33.57,1.03-45.81,32.12-46.13,32.97-5.88,15.39-8.55,50.91,12.56,72.86,8.19,8.29,19.59,15.34,40.99,14.25,11.88-.61,21.81-4.88,31.31-13.17.53-.46,17.73-15.84,16.45-50.73Z"/>
  </g>
  <g>
    <path class="cls-11" d="M224.34,488.49c2.62,4.93,4.22,12.46,4.26,23.57,0,.11,0,.22,0,.33,0,.07,0,.13,0,.19,0,7.1-.82,12.95-2.22,17.63,1.29-3.21,2.07-6.62,2.23-9.98,0-.86.02-1.7.02-2.53.36-8.48.13-16.19-2.05-24.41-.67-1.83-1.39-3.41-2.24-4.8Z"/>
    <path class="cls-20" d="M211.04,451.7c-25.22.25-55.8,16.02-53.27,65.2,2.52,49.03,41.27,55.63,53.4,55.57,36.94-.19,54.58-27.56,54.65-56.94.03-14.34-7.53-64.3-54.78-63.83ZM228.63,517.7c0,.84-.02,1.67-.02,2.53-.16,3.36-.94,6.77-2.23,9.98-3,9.99-8.73,14.65-15.33,14.65-9.7,0-18.42-8.63-17.56-32.29,0-.08,0-.15.01-.23.04-3.96.39-7.82,1.2-11.54,2.53-13.8,8.6-20.52,16.34-20.52,5.31,0,10.07,2.13,13.3,8.19.85,1.39,1.57,2.97,2.24,4.8,2.18,8.23,2.41,15.94,2.05,24.41Z"/>
  </g>
  <text class="cls-8" transform="translate(101.35 635.01)"><tspan class="cls-17" x="0" y="0">P</tspan><tspan class="cls-2" x="34.99" y="0">e</tspan><tspan x="63.23" y="0">t </tspan><tspan class="cls-2" x="99.2" y="0">C</tspan><tspan x="135.27" y="0">a</tspan><tspan class="cls-3" x="164.75" y="0">r</tspan><tspan x="185.87" y="0">e Made Ea</tspan><tspan class="cls-6" x="443.12" y="0">s</tspan><tspan x="469.15" y="0">y</tspan></text>
</svg>