<svg xmlns="http://www.w3.org/2000/svg" viewBox="0 0 420.15 122.27"><defs><style>.cls-1{fill:#0093d0;}.cls-2{fill:#73c167;}</style></defs><g id="Layer_2" data-name="Layer 2"><g id="Layer_1-2" data-name="Layer 1"><polygon class="cls-1" points="8.35 116.16 14.21 100.47 16.7 100.47 8.35 122.27 0 100.47 2.48 100.47 8.35 116.16"/><path class="cls-1" d="M21.05,120.47h-2v-13h2Zm.4-17.48a1.56,1.56,0,1,1-1.56-1.55A1.57,1.57,0,0,1,21.45,103"/><path class="cls-1" d="M36.05,111.47H35a5.3,5.3,0,0,0-4-2,4.59,4.59,0,0,0-4.52,4.75A4.49,4.49,0,0,0,30.91,119a4.65,4.65,0,0,0,4.18-2.51h0v3.22a6.57,6.57,0,0,1-4,1.31,6.64,6.64,0,0,1-6.82-6.77,6.76,6.76,0,0,1,6.85-6.76,14.18,14.18,0,0,1,4.94,1.28Z"/><polygon class="cls-1" points="41.05 120.47 38.05 120.47 38.05 109.47 37.05 109.47 37.05 108.47 38.05 108.47 38.05 103.47 41.05 103.47 41.05 108.47 43.05 108.47 43.05 109.47 41.05 109.47 41.05 120.47"/><path class="cls-1" d="M46.11,114.23a4.56,4.56,0,1,0,4.56-4.74,4.54,4.54,0,0,0-4.56,4.74m-2.18,0A6.74,6.74,0,1,1,50.67,121a6.73,6.73,0,0,1-6.74-6.74"/><path class="cls-1" d="M62.05,109.47h.05c.69-1,1.29-1.68,2.59-1.68a3.4,3.4,0,0,1,1.8.58l-.95,1.92a1.9,1.9,0,0,0-1.2-.56c-2.19,0-2.29,3-2.29,4.57v6.17h-2v-12h2Z"/><path class="cls-1" d="M72.05,120.47h-2v-13h2ZM72.6,103A1.56,1.56,0,1,1,71,101.44,1.57,1.57,0,0,1,72.6,103"/><path class="cls-1" d="M77.83,114.1c0,2.51,1.48,4.88,4.21,4.88s4.28-2.27,4.28-4.86-1.61-4.64-4.31-4.64a4.36,4.36,0,0,0-4.18,4.62m10.22,6.37h-2v-2H86a5.24,5.24,0,0,1-4.31,2.08c-3.68,0-6-3.12-6-6.58s2.26-6.62,6-6.62A5.4,5.4,0,0,1,86,109.47h.06v-2h2Z"/><path class="cls-2" d="M419.9,52.84c-.65-2.31-1.81-3.85-5.11-3.86-7.49,0-15,4.47-16.82,5.6-4.31,2.66-6.21,11.12,2.36,12.2,6.42.81,13.39-3,15.34-4.31,1.22-.8,5.58-4.83,4.23-9.63"/><path class="cls-2" d="M389.19,38.57c1-4.21-2.76-9.55-8-6.09-10.31,6.78-9.35,13.05-9.43,14.05-.24,2.74,4.84,10.34,10.36,4.92,5.33-5.24,7.09-12.88,7.09-12.88"/><path class="cls-2" d="M411.31,43.69c5.48-5.71.57-12.61-6.46-11.15-10,2.08-15.51,10.69-16.14,12.66-.88,2.75-.36,8.52,7.5,7.06,5.39-1,11.94-5.27,15.1-8.57"/><path class="cls-2" d="M406.7,79.61c1.11-.45,3.71-2.12,3.63-4.5a4.91,4.91,0,0,0-3.09-4.63,20.14,20.14,0,0,0-14.81-1.54c-2,.33-4.74,2.65-4.66,5.3.07,2.06,2,4.14,3.53,5.18,3.28,2.21,7.67,1.75,8.86,1.79,2.17.08,6.54-1.6,6.54-1.6"/><path class="cls-2" d="M381.39,55.92c-1.18-.13-9.31-1.13-15.16,0-.39.08-7.7,2.27-4.07,10.26,3.92,8.64,8.64,12,9.42,12.46s4.6,3.13,8.26-.64c4.11-4.23,7.27-9.45,8.23-12.48.91-2.87,1.64-8.73-6.68-9.58"/><path class="cls-2" d="M328.05,77.47h.43c.49,0,.92-.18.92-.64s-.24-.66-.92-.66a2.31,2.31,0,0,0-.43,0Zm0,2h-1V75.7a8.73,8.73,0,0,1,1.15-.08,2.35,2.35,0,0,1,1.27.28.89.89,0,0,1,.37.78,1,1,0,0,1-.79.92v-.08a1.49,1.49,0,0,1,.73.92,6.66,6.66,0,0,0,.24,1h-.63a4.72,4.72,0,0,1-.25-1.06c-.09-.48-.33-.66-.81-.94h-.28Zm.49-5a2.86,2.86,0,1,0,2.71,2.87,2.78,2.78,0,0,0-2.71-2.87Zm0,0a3.39,3.39,0,1,1-3.36,3.38,3.33,3.33,0,0,1,3.36-3.38Z"/><path class="cls-2" d="M326.47,15.18c-1.21-4.16-7.14-6.91-10-1.29-5.57,11-1.61,16-1.19,16.88,1.16,2.5,9.35,6.56,11.44-.89,2-7.19-.26-14.7-.26-14.7"/><path class="cls-2" d="M328.33,34.11c-1.08.49-8.63,3.66-13.15,7.53-.31.26-5.55,5.8,1.57,10.93,7.7,5.54,13.45,6.08,14.37,6.11s5.55.44,6.85-4.65c1.46-5.72,1.6-11.82.93-14.93-.64-2.94-2.93-8.38-10.57-5"/><path class="cls-2" d="M348.21,8.62c1.91-7.68-5.79-11.22-11.16-6.46-7.64,6.79-8.13,17-7.7,19,.6,2.83,3.93,7.57,10,2.4,4.18-3.55,7.73-10.52,8.84-14.95"/><path class="cls-2" d="M360.36,12.59c-1.67-1.72-3.41-2.53-6.33-1-6.59,3.54-11.06,11.05-12.14,12.92-2.53,4.39-.18,12.73,7.88,9.61,6-2.34,10.34-9,11.45-11.08.69-1.28,2.61-6.9-.86-10.48"/><path class="cls-2" d="M361.83,42.48c.74-.94,2.16-3.69.91-5.71a4.92,4.92,0,0,0-5-2.48,20.19,20.19,0,0,0-13.62,6c-1.57,1.29-2.79,4.66-1.39,6.92,1.08,1.75,3.76,2.61,5.63,2.74,3.94.28,7.53-2.3,8.58-2.86,1.92-1,4.88-4.64,4.88-4.64"/><path class="cls-1" d="M24.05,52.47h1.63c3.86,0,7.73-.6,7.73-5.41,0-5-3.52-5.59-7.56-5.59h-1.8Zm-24-30H29.9c15.33,0,28.31,6.5,28.31,23.63,0,10.29-4,14.61-13.16,17.68v.33a17.45,17.45,0,0,1,4.18,4.09L64.14,90.47H35.41l-10.91-22h-.45v22H.05Z"/><path class="cls-1" d="M72,65.8l1.25,1C77.6,70.19,82.89,73,88.54,73c2.43,0,6.29-1,6.29-4s-3.23-3.32-5.48-3.77l-4.93-.9c-9.6-1.7-17.67-7.35-17.67-17.94,0-16.06,14.62-25,29.33-25a40.19,40.19,0,0,1,21.44,5.92l-6.63,17.32c-4.22-2.88-9-5.12-14.27-5.12-2.15,0-5.29.81-5.29,3.59,0,2.51,3,2.87,4.93,3.32l5.57,1.26c10.4,2.33,17.94,7.89,17.94,19.37,0,16.15-14.72,24.14-29.34,24.14a60.94,60.94,0,0,1-26-6.19Z"/><path class="cls-1" d="M151.05,52.47h2.47c4.4,0,9.16-.73,9.16-6.32,0-5.4-5.13-5.68-9.25-5.68h-2.38Zm-24-30h31.4c15.7,0,27.29,8,27.29,24.71,0,13.73-8.56,22.29-22.21,22.29H151.05v21h-24Z"/><path class="cls-1" d="M242.85,49.83C238.91,46.15,234,43,228.41,43A13.25,13.25,0,0,0,215,56.2c0,7.45,6.37,13.19,13.73,13.19,5.65,0,10.14-2.43,14.08-6.28l-.71,25.3c-3.95,1.88-13.1,2.69-17.5,2.69a33.89,33.89,0,0,1-34.36-34.27A35.17,35.17,0,0,1,225.63,21.3a51.31,51.31,0,0,1,16.51,2.78Z"/><path class="cls-1" d="M287.8,65.47l-2.93-12.14c-.72-2.92-1.18-5.94-1.64-8.86h-.91l-4.57,21Zm-15.75,24H245.81l23.28-67H296l23.91,67H293.68l-2.13-8H273.93Z"/></g></g></svg>